<svg xmlns="http://www.w3.org/2000/svg" viewBox="0 0 100 100" width="100" height="100">
  <!-- Outer circle -->
  <circle cx="50" cy="50" r="44" fill="none" stroke="#cc2222" stroke-width="4"/>
  <!-- Eyebrows - elegant arcs -->
  <path d="M30 34 Q36 28 42 34" fill="none" stroke="#cc2222" stroke-width="2.5" stroke-linecap="round"/>
  <path d="M58 34 Q64 28 70 34" fill="none" stroke="#cc2222" stroke-width="2.5" stroke-linecap="round"/>
  <!-- Eyes - almond shape with pupils -->
  <path d="M31 42 Q36 37 41 42 Q36 47 31 42 Z" fill="none" stroke="#cc2222" stroke-width="2"/>
  <circle cx="36" cy="42" r="2.2" fill="#cc2222"/>
  <path d="M59 42 Q64 37 69 42 Q64 47 59 42 Z" fill="none" stroke="#cc2222" stroke-width="2"/>
  <circle cx="64" cy="42" r="2.2" fill="#cc2222"/>
  <!-- Nose - refined shape -->
  <path d="M50 46 L47 56 Q50 58 53 56 Z" fill="none" stroke="#cc2222" stroke-width="1.8" stroke-linejoin="round"/>
  <!-- Mouth - warm smile with lip detail -->
  <path d="M36 64 Q43 72 50 72 Q57 72 64 64" fill="none" stroke="#cc2222" stroke-width="2.5" stroke-linecap="round"/>
  <!-- Smile dimples -->
  <path d="M34 63 Q33 65 34 66" fill="none" stroke="#cc2222" stroke-width="1.5" stroke-linecap="round"/>
  <path d="M66 63 Q67 65 66 66" fill="none" stroke="#cc2222" stroke-width="1.5" stroke-linecap="round"/>
</svg>
